<svg xmlns="http://www.w3.org/2000/svg" xmlns:xlink="http://www.w3.org/1999/xlink" width="469" zoomAndPan="magnify" viewBox="0 0 351.75 81.749997" height="109" preserveAspectRatio="xMidYMid meet" version="1.2"><defs/><g id="ca54b18880"><g style="fill:#333d35;fill-opacity:1;"><g transform="translate(31.972444, 55.284605)"><path style="stroke:none" d="M 1.140625 -6.65625 C 1.140625 -8.226562 1.503906 -9.640625 2.234375 -10.890625 C 2.972656 -12.140625 3.921875 -13.28125 5.078125 -14.3125 C 6.234375 -15.34375 7.457031 -16.28125 8.75 -17.125 C 10.039062 -17.976562 11.257812 -18.765625 12.40625 -19.484375 C 13.5625 -20.203125 14.503906 -20.890625 15.234375 -21.546875 C 15.972656 -22.210938 16.34375 -22.875 16.34375 -23.53125 C 16.34375 -23.882812 16.253906 -24.144531 16.078125 -24.3125 C 15.898438 -24.476562 15.6875 -24.5625 15.4375 -24.5625 C 14.976562 -24.5625 14.550781 -24.359375 14.15625 -23.953125 C 13.769531 -23.546875 13.382812 -23.082031 13 -22.5625 C 12.625 -22.039062 12.210938 -21.578125 11.765625 -21.171875 C 11.316406 -20.765625 10.828125 -20.5625 10.296875 -20.5625 C 9.765625 -20.5625 9.441406 -20.773438 9.328125 -21.203125 C 9.210938 -21.640625 9.242188 -22.097656 9.421875 -22.578125 C 10.003906 -24.097656 10.535156 -25.507812 11.015625 -26.8125 C 11.503906 -28.125 11.984375 -29.394531 12.453125 -30.625 C 12.921875 -31.851562 13.398438 -33.125 13.890625 -34.4375 C 14.390625 -35.757812 14.941406 -37.207031 15.546875 -38.78125 L 15.921875 -38.78125 L 28.09375 -6.65625 C 28.925781 -4.570312 29.707031 -3.003906 30.4375 -1.953125 C 31.175781 -0.898438 32.128906 -0.375 33.296875 -0.375 L 33.296875 0 L 20.828125 0 L 20.828125 -0.375 C 22.171875 -0.375 23.191406 -0.550781 23.890625 -0.90625 C 24.585938 -1.257812 25.035156 -1.753906 25.234375 -2.390625 C 25.441406 -3.023438 25.46875 -3.757812 25.3125 -4.59375 C 25.164062 -5.4375 24.914062 -6.335938 24.5625 -7.296875 L 19.84375 -19.734375 C 20 -18.515625 20.078125 -16.992188 20.078125 -15.171875 C 20.078125 -12.097656 19.597656 -9.359375 18.640625 -6.953125 C 17.691406 -4.546875 16.320312 -2.65625 14.53125 -1.28125 C 12.75 0.0820312 10.59375 0.765625 8.0625 0.765625 C 6.59375 0.765625 5.34375 0.421875 4.3125 -0.265625 C 3.289062 -0.953125 2.503906 -1.859375 1.953125 -2.984375 C 1.410156 -4.109375 1.140625 -5.332031 1.140625 -6.65625 Z M 4.375 -7.375 C 4.375 -5.601562 4.90625 -4.109375 5.96875 -2.890625 C 7.03125 -1.671875 8.488281 -1.0625 10.34375 -1.0625 C 11.9375 -1.0625 13.316406 -1.492188 14.484375 -2.359375 C 15.648438 -3.222656 16.617188 -4.347656 17.390625 -5.734375 C 18.160156 -7.128906 18.734375 -8.648438 19.109375 -10.296875 C 19.492188 -11.941406 19.6875 -13.539062 19.6875 -15.09375 C 19.6875 -16.507812 19.640625 -17.773438 19.546875 -18.890625 C 19.460938 -20.003906 19.242188 -21.117188 18.890625 -22.234375 L 14.296875 -34.359375 L 9.921875 -22.734375 C 9.671875 -22.078125 9.601562 -21.613281 9.71875 -21.34375 C 9.832031 -21.082031 10.039062 -20.953125 10.34375 -20.953125 C 10.769531 -20.953125 11.1875 -21.148438 11.59375 -21.546875 C 12 -21.953125 12.40625 -22.414062 12.8125 -22.9375 C 13.21875 -23.457031 13.640625 -23.921875 14.078125 -24.328125 C 14.523438 -24.734375 15.003906 -24.9375 15.515625 -24.9375 C 15.867188 -24.9375 16.164062 -24.816406 16.40625 -24.578125 C 16.644531 -24.335938 16.765625 -23.960938 16.765625 -23.453125 C 16.765625 -22.617188 16.46875 -21.851562 15.875 -21.15625 C 15.28125 -20.457031 14.515625 -19.78125 13.578125 -19.125 C 12.640625 -18.46875 11.632812 -17.769531 10.5625 -17.03125 C 9.5 -16.289062 8.5 -15.472656 7.5625 -14.578125 C 6.625 -13.679688 5.859375 -12.648438 5.265625 -11.484375 C 4.671875 -10.316406 4.375 -8.945312 4.375 -7.375 Z M 4.375 -7.375 "/></g></g><g style="fill:#333d35;fill-opacity:1;"><g transform="translate(65.264764, 55.284605)"><path style="stroke:none" d="M 1.140625 0 L 1.140625 -0.375 C 2.234375 -0.375 3.023438 -0.703125 3.515625 -1.359375 C 4.003906 -2.023438 4.3125 -3.101562 4.4375 -4.59375 C 4.570312 -6.09375 4.640625 -8.082031 4.640625 -10.5625 L 4.640625 -27.453125 C 4.640625 -29.953125 4.570312 -31.941406 4.4375 -33.421875 C 4.3125 -34.910156 4.003906 -35.984375 3.515625 -36.640625 C 3.023438 -37.304688 2.234375 -37.640625 1.140625 -37.640625 L 1.140625 -38.015625 L 4.1875 -38.015625 C 6.1875 -38.015625 8.035156 -38.140625 9.734375 -38.390625 C 11.429688 -38.648438 13.113281 -38.78125 14.78125 -38.78125 C 17.726562 -38.78125 20.273438 -38.242188 22.421875 -37.171875 C 24.578125 -36.109375 26.367188 -34.648438 27.796875 -32.796875 C 29.234375 -30.953125 30.300781 -28.84375 31 -26.46875 C 31.695312 -24.101562 32.046875 -21.613281 32.046875 -19 C 32.046875 -16.394531 31.695312 -13.90625 31 -11.53125 C 30.300781 -9.164062 29.234375 -7.054688 27.796875 -5.203125 C 26.367188 -3.359375 24.578125 -1.898438 22.421875 -0.828125 C 20.273438 0.234375 17.726562 0.765625 14.78125 0.765625 C 13.113281 0.765625 11.429688 0.632812 9.734375 0.375 C 8.035156 0.125 6.1875 0 4.1875 0 Z M 7.875 -37.171875 L 7.875 -0.84375 C 8.988281 -0.507812 10.101562 -0.242188 11.21875 -0.046875 C 12.332031 0.140625 13.507812 0.234375 14.75 0.234375 C 17.101562 0.234375 19.15625 -0.269531 20.90625 -1.28125 C 22.65625 -2.300781 24.113281 -3.703125 25.28125 -5.484375 C 26.445312 -7.273438 27.320312 -9.328125 27.90625 -11.640625 C 28.488281 -13.960938 28.78125 -16.414062 28.78125 -19 C 28.78125 -21.59375 28.488281 -24.046875 27.90625 -26.359375 C 27.320312 -28.679688 26.445312 -30.734375 25.28125 -32.515625 C 24.113281 -34.304688 22.65625 -35.707031 20.90625 -36.71875 C 19.15625 -37.738281 17.101562 -38.25 14.75 -38.25 C 13.507812 -38.25 12.332031 -38.160156 11.21875 -37.984375 C 10.101562 -37.804688 8.988281 -37.535156 7.875 -37.171875 Z M 7.875 -37.171875 "/></g></g><g style="fill:#333d35;fill-opacity:1;"><g transform="translate(99.583228, 55.284605)"><path style="stroke:none" d="M 1.140625 -6.65625 C 1.140625 -8.226562 1.503906 -9.640625 2.234375 -10.890625 C 2.972656 -12.140625 3.921875 -13.28125 5.078125 -14.3125 C 6.234375 -15.34375 7.457031 -16.28125 8.75 -17.125 C 10.039062 -17.976562 11.257812 -18.765625 12.40625 -19.484375 C 13.5625 -20.203125 14.503906 -20.890625 15.234375 -21.546875 C 15.972656 -22.210938 16.34375 -22.875 16.34375 -23.53125 C 16.34375 -23.882812 16.253906 -24.144531 16.078125 -24.3125 C 15.898438 -24.476562 15.6875 -24.5625 15.4375 -24.5625 C 14.976562 -24.5625 14.550781 -24.359375 14.15625 -23.953125 C 13.769531 -23.546875 13.382812 -23.082031 13 -22.5625 C 12.625 -22.039062 12.210938 -21.578125 11.765625 -21.171875 C 11.316406 -20.765625 10.828125 -20.5625 10.296875 -20.5625 C 9.765625 -20.5625 9.441406 -20.773438 9.328125 -21.203125 C 9.210938 -21.640625 9.242188 -22.097656 9.421875 -22.578125 C 10.003906 -24.097656 10.535156 -25.507812 11.015625 -26.8125 C 11.503906 -28.125 11.984375 -29.394531 12.453125 -30.625 C 12.921875 -31.851562 13.398438 -33.125 13.890625 -34.4375 C 14.390625 -35.757812 14.941406 -37.207031 15.546875 -38.78125 L 15.921875 -38.78125 L 28.09375 -6.65625 C 28.925781 -4.570312 29.707031 -3.003906 30.4375 -1.953125 C 31.175781 -0.898438 32.128906 -0.375 33.296875 -0.375 L 33.296875 0 L 20.828125 0 L 20.828125 -0.375 C 22.171875 -0.375 23.191406 -0.550781 23.890625 -0.90625 C 24.585938 -1.257812 25.035156 -1.753906 25.234375 -2.390625 C 25.441406 -3.023438 25.46875 -3.757812 25.3125 -4.59375 C 25.164062 -5.4375 24.914062 -6.335938 24.5625 -7.296875 L 19.84375 -19.734375 C 20 -18.515625 20.078125 -16.992188 20.078125 -15.171875 C 20.078125 -12.097656 19.597656 -9.359375 18.640625 -6.953125 C 17.691406 -4.546875 16.320312 -2.65625 14.53125 -1.28125 C 12.75 0.0820312 10.59375 0.765625 8.0625 0.765625 C 6.59375 0.765625 5.34375 0.421875 4.3125 -0.265625 C 3.289062 -0.953125 2.503906 -1.859375 1.953125 -2.984375 C 1.410156 -4.109375 1.140625 -5.332031 1.140625 -6.65625 Z M 4.375 -7.375 C 4.375 -5.601562 4.90625 -4.109375 5.96875 -2.890625 C 7.03125 -1.671875 8.488281 -1.0625 10.34375 -1.0625 C 11.9375 -1.0625 13.316406 -1.492188 14.484375 -2.359375 C 15.648438 -3.222656 16.617188 -4.347656 17.390625 -5.734375 C 18.160156 -7.128906 18.734375 -8.648438 19.109375 -10.296875 C 19.492188 -11.941406 19.6875 -13.539062 19.6875 -15.09375 C 19.6875 -16.507812 19.640625 -17.773438 19.546875 -18.890625 C 19.460938 -20.003906 19.242188 -21.117188 18.890625 -22.234375 L 14.296875 -34.359375 L 9.921875 -22.734375 C 9.671875 -22.078125 9.601562 -21.613281 9.71875 -21.34375 C 9.832031 -21.082031 10.039062 -20.953125 10.34375 -20.953125 C 10.769531 -20.953125 11.1875 -21.148438 11.59375 -21.546875 C 12 -21.953125 12.40625 -22.414062 12.8125 -22.9375 C 13.21875 -23.457031 13.640625 -23.921875 14.078125 -24.328125 C 14.523438 -24.734375 15.003906 -24.9375 15.515625 -24.9375 C 15.867188 -24.9375 16.164062 -24.816406 16.40625 -24.578125 C 16.644531 -24.335938 16.765625 -23.960938 16.765625 -23.453125 C 16.765625 -22.617188 16.46875 -21.851562 15.875 -21.15625 C 15.28125 -20.457031 14.515625 -19.78125 13.578125 -19.125 C 12.640625 -18.46875 11.632812 -17.769531 10.5625 -17.03125 C 9.5 -16.289062 8.5 -15.472656 7.5625 -14.578125 C 6.625 -13.679688 5.859375 -12.648438 5.265625 -11.484375 C 4.671875 -10.316406 4.375 -8.945312 4.375 -7.375 Z M 4.375 -7.375 "/></g></g><g style="fill:#333d35;fill-opacity:1;"><g transform="translate(132.875549, 55.284605)"><path style="stroke:none" d="M 1.140625 -38.015625 L 11.40625 -38.015625 L 11.40625 -37.640625 C 10.3125 -37.640625 9.515625 -37.304688 9.015625 -36.640625 C 8.523438 -35.984375 8.21875 -34.910156 8.09375 -33.421875 C 7.96875 -31.941406 7.90625 -29.953125 7.90625 -27.453125 L 7.90625 -0.375 L 12.734375 -0.375 C 13.335938 -0.375 14.128906 -0.394531 15.109375 -0.4375 C 16.085938 -0.476562 17.144531 -0.5625 18.28125 -0.6875 C 19.425781 -0.8125 20.5625 -1.003906 21.6875 -1.265625 C 22.8125 -1.535156 23.847656 -1.882812 24.796875 -2.3125 C 25.753906 -2.75 26.515625 -3.289062 27.078125 -3.9375 C 27.648438 -4.582031 27.9375 -5.359375 27.9375 -6.265625 L 28.328125 -6.265625 L 28.328125 0 L 1.140625 0 L 1.140625 -0.375 C 2.234375 -0.375 3.023438 -0.703125 3.515625 -1.359375 C 4.003906 -2.023438 4.3125 -3.101562 4.4375 -4.59375 C 4.570312 -6.09375 4.640625 -8.082031 4.640625 -10.5625 L 4.640625 -27.453125 C 4.640625 -29.953125 4.570312 -31.941406 4.4375 -33.421875 C 4.3125 -34.910156 4.003906 -35.984375 3.515625 -36.640625 C 3.023438 -37.304688 2.234375 -37.640625 1.140625 -37.640625 Z M 1.140625 -38.015625 "/></g></g><g style="fill:#333d35;fill-opacity:1;"><g transform="translate(162.32938, 55.284605)"><path style="stroke:none" d="M 1.140625 -37.640625 L 1.140625 -38.015625 L 11.40625 -38.015625 L 11.40625 -37.640625 C 10.3125 -37.640625 9.515625 -37.304688 9.015625 -36.640625 C 8.523438 -35.984375 8.21875 -34.910156 8.09375 -33.421875 C 7.96875 -31.941406 7.90625 -29.953125 7.90625 -27.453125 L 7.90625 -10.5625 C 7.90625 -8.082031 7.96875 -6.09375 8.09375 -4.59375 C 8.21875 -3.101562 8.523438 -2.023438 9.015625 -1.359375 C 9.515625 -0.703125 10.3125 -0.375 11.40625 -0.375 L 11.40625 0 L 1.140625 0 L 1.140625 -0.375 C 2.234375 -0.375 3.023438 -0.703125 3.515625 -1.359375 C 4.003906 -2.023438 4.3125 -3.101562 4.4375 -4.59375 C 4.570312 -6.09375 4.640625 -8.082031 4.640625 -10.5625 L 4.640625 -27.453125 C 4.640625 -29.953125 4.570312 -31.941406 4.4375 -33.421875 C 4.3125 -34.910156 4.003906 -35.984375 3.515625 -36.640625 C 3.023438 -37.304688 2.234375 -37.640625 1.140625 -37.640625 Z M 1.140625 -37.640625 "/></g></g><g style="fill:#d7af53;fill-opacity:1;"><g transform="translate(179.016115, 55.448853)"><path style="stroke:none" d="M 0.703125 -23.125 L 0.703125 -23.359375 L 3.5 -23.359375 C 4.351562 -23.359375 5.132812 -23.394531 5.84375 -23.46875 C 6.5625 -23.550781 7.28125 -23.628906 8 -23.703125 C 8.726562 -23.785156 9.539062 -23.828125 10.4375 -23.828125 C 12.101562 -23.828125 13.507812 -23.503906 14.65625 -22.859375 C 15.8125 -22.222656 16.691406 -21.359375 17.296875 -20.265625 C 17.898438 -19.171875 18.203125 -17.925781 18.203125 -16.53125 C 18.203125 -15.582031 18.03125 -14.664062 17.6875 -13.78125 C 17.34375 -12.90625 16.832031 -12.117188 16.15625 -11.421875 C 15.476562 -10.734375 14.640625 -10.1875 13.640625 -9.78125 C 12.640625 -9.382812 11.492188 -9.1875 10.203125 -9.1875 C 9.523438 -9.1875 8.832031 -9.242188 8.125 -9.359375 C 7.425781 -9.484375 6.785156 -9.628906 6.203125 -9.796875 C 5.628906 -9.972656 5.171875 -10.132812 4.828125 -10.28125 L 4.828125 -6.5 C 4.828125 -4.96875 4.863281 -3.742188 4.9375 -2.828125 C 5.019531 -1.910156 5.210938 -1.25 5.515625 -0.84375 C 5.828125 -0.4375 6.316406 -0.234375 6.984375 -0.234375 L 6.984375 0 L 0.703125 0 L 0.703125 -0.234375 C 1.367188 -0.234375 1.851562 -0.4375 2.15625 -0.84375 C 2.457031 -1.25 2.644531 -1.910156 2.71875 -2.828125 C 2.800781 -3.742188 2.84375 -4.96875 2.84375 -6.5 L 2.84375 -16.859375 C 2.84375 -18.398438 2.800781 -19.625 2.71875 -20.53125 C 2.644531 -21.445312 2.457031 -22.109375 2.15625 -22.515625 C 1.851562 -22.921875 1.367188 -23.125 0.703125 -23.125 Z M 4.828125 -10.515625 C 5.421875 -10.265625 6.140625 -10.054688 6.984375 -9.890625 C 7.835938 -9.722656 8.769531 -9.640625 9.78125 -9.640625 C 10.957031 -9.640625 11.945312 -9.863281 12.75 -10.3125 C 13.5625 -10.757812 14.21875 -11.332031 14.71875 -12.03125 C 15.226562 -12.726562 15.597656 -13.472656 15.828125 -14.265625 C 16.066406 -15.066406 16.1875 -15.816406 16.1875 -16.515625 C 16.1875 -17.929688 15.894531 -19.160156 15.3125 -20.203125 C 14.738281 -21.242188 13.921875 -22.050781 12.859375 -22.625 C 11.804688 -23.207031 10.554688 -23.5 9.109375 -23.5 C 8.253906 -23.5 7.503906 -23.441406 6.859375 -23.328125 C 6.222656 -23.210938 5.546875 -23.019531 4.828125 -22.75 Z M 4.828125 -10.515625 "/></g><g transform="translate(198.620224, 55.448853)"><path style="stroke:none" d="M 0.703125 -4.09375 C 0.703125 -5.050781 0.925781 -5.914062 1.375 -6.6875 C 1.832031 -7.457031 2.414062 -8.15625 3.125 -8.78125 C 3.832031 -9.414062 4.582031 -9.992188 5.375 -10.515625 C 6.164062 -11.046875 6.914062 -11.53125 7.625 -11.96875 C 8.332031 -12.414062 8.910156 -12.84375 9.359375 -13.25 C 9.816406 -13.65625 10.046875 -14.054688 10.046875 -14.453125 C 10.046875 -14.671875 9.988281 -14.832031 9.875 -14.9375 C 9.769531 -15.039062 9.640625 -15.09375 9.484375 -15.09375 C 9.203125 -15.09375 8.941406 -14.96875 8.703125 -14.71875 C 8.460938 -14.46875 8.222656 -14.179688 7.984375 -13.859375 C 7.753906 -13.546875 7.503906 -13.265625 7.234375 -13.015625 C 6.960938 -12.765625 6.660156 -12.640625 6.328125 -12.640625 C 6.003906 -12.640625 5.804688 -12.769531 5.734375 -13.03125 C 5.660156 -13.300781 5.679688 -13.582031 5.796875 -13.875 C 6.148438 -14.8125 6.472656 -15.679688 6.765625 -16.484375 C 7.066406 -17.285156 7.359375 -18.0625 7.640625 -18.8125 C 7.929688 -19.570312 8.226562 -20.351562 8.53125 -21.15625 C 8.84375 -21.96875 9.179688 -22.859375 9.546875 -23.828125 L 9.78125 -23.828125 L 17.265625 -4.09375 C 17.773438 -2.8125 18.253906 -1.847656 18.703125 -1.203125 C 19.160156 -0.554688 19.75 -0.234375 20.46875 -0.234375 L 20.46875 0 L 12.796875 0 L 12.796875 -0.234375 C 13.617188 -0.234375 14.242188 -0.34375 14.671875 -0.5625 C 15.109375 -0.78125 15.390625 -1.082031 15.515625 -1.46875 C 15.640625 -1.863281 15.65625 -2.316406 15.5625 -2.828125 C 15.46875 -3.335938 15.3125 -3.890625 15.09375 -4.484375 L 12.1875 -12.125 C 12.28125 -11.375 12.328125 -10.441406 12.328125 -9.328125 C 12.328125 -7.441406 12.035156 -5.757812 11.453125 -4.28125 C 10.867188 -2.800781 10.023438 -1.640625 8.921875 -0.796875 C 7.828125 0.046875 6.503906 0.46875 4.953125 0.46875 C 4.046875 0.46875 3.273438 0.257812 2.640625 -0.15625 C 2.015625 -0.582031 1.535156 -1.140625 1.203125 -1.828125 C 0.867188 -2.523438 0.703125 -3.28125 0.703125 -4.09375 Z M 2.6875 -4.53125 C 2.6875 -3.4375 3.015625 -2.515625 3.671875 -1.765625 C 4.328125 -1.023438 5.222656 -0.65625 6.359375 -0.65625 C 7.335938 -0.65625 8.179688 -0.921875 8.890625 -1.453125 C 9.609375 -1.984375 10.207031 -2.675781 10.6875 -3.53125 C 11.164062 -4.382812 11.519531 -5.316406 11.75 -6.328125 C 11.976562 -7.335938 12.09375 -8.320312 12.09375 -9.28125 C 12.09375 -10.144531 12.066406 -10.921875 12.015625 -11.609375 C 11.960938 -12.296875 11.828125 -12.984375 11.609375 -13.671875 L 8.78125 -21.109375 L 6.09375 -13.96875 C 5.9375 -13.5625 5.894531 -13.273438 5.96875 -13.109375 C 6.039062 -12.953125 6.171875 -12.875 6.359375 -12.875 C 6.617188 -12.875 6.875 -13 7.125 -13.25 C 7.375 -13.5 7.625 -13.78125 7.875 -14.09375 C 8.125 -14.414062 8.382812 -14.703125 8.65625 -14.953125 C 8.925781 -15.203125 9.21875 -15.328125 9.53125 -15.328125 C 9.75 -15.328125 9.929688 -15.25 10.078125 -15.09375 C 10.222656 -14.945312 10.296875 -14.71875 10.296875 -14.40625 C 10.296875 -13.894531 10.113281 -13.425781 9.75 -13 C 9.382812 -12.570312 8.910156 -12.15625 8.328125 -11.75 C 7.753906 -11.34375 7.140625 -10.910156 6.484375 -10.453125 C 5.835938 -10.003906 5.222656 -9.503906 4.640625 -8.953125 C 4.066406 -8.398438 3.597656 -7.765625 3.234375 -7.046875 C 2.867188 -6.335938 2.6875 -5.5 2.6875 -4.53125 Z M 2.6875 -4.53125 "/></g><g transform="translate(219.088877, 55.448853)"><path style="stroke:none" d="M 0.703125 -23.359375 L 4.78125 -23.359375 L 17.875 -3.40625 L 17.875 -13.59375 C 17.875 -15.863281 17.6875 -17.695312 17.3125 -19.09375 C 16.9375 -20.488281 16.445312 -21.507812 15.84375 -22.15625 C 15.25 -22.800781 14.617188 -23.125 13.953125 -23.125 L 13.953125 -23.359375 L 20.25 -23.359375 L 20.25 -23.125 C 19.582031 -23.125 19.097656 -22.921875 18.796875 -22.515625 C 18.492188 -22.109375 18.300781 -21.445312 18.21875 -20.53125 C 18.144531 -19.625 18.109375 -18.398438 18.109375 -16.859375 L 18.109375 0.46875 L 17.875 0.46875 L 3.078125 -22.046875 L 3.078125 -9.765625 C 3.078125 -7.503906 3.265625 -5.671875 3.640625 -4.265625 C 4.015625 -2.867188 4.5 -1.847656 5.09375 -1.203125 C 5.695312 -0.554688 6.332031 -0.234375 7 -0.234375 L 7 0 L 0.703125 0 L 0.703125 -0.234375 C 1.367188 -0.234375 1.851562 -0.4375 2.15625 -0.84375 C 2.457031 -1.25 2.644531 -1.910156 2.71875 -2.828125 C 2.800781 -3.742188 2.84375 -4.96875 2.84375 -6.5 L 2.84375 -16.859375 C 2.84375 -18.398438 2.800781 -19.625 2.71875 -20.53125 C 2.644531 -21.445312 2.457031 -22.109375 2.15625 -22.515625 C 1.851562 -22.921875 1.367188 -23.125 0.703125 -23.125 Z M 0.703125 -23.359375 "/></g><g transform="translate(240.048217, 55.448853)"><path style="stroke:none" d="M 1.40625 -17.75 C 1.40625 -18.84375 1.726562 -19.847656 2.375 -20.765625 C 3.019531 -21.679688 3.960938 -22.421875 5.203125 -22.984375 C 6.453125 -23.546875 7.972656 -23.828125 9.765625 -23.828125 C 11.191406 -23.828125 12.429688 -23.722656 13.484375 -23.515625 C 14.535156 -23.316406 15.515625 -23.0625 16.421875 -22.75 L 16.421875 -19.625 L 16.1875 -19.625 C 16.1875 -19.625 16.125 -19.753906 16 -20.015625 C 15.875 -20.285156 15.660156 -20.613281 15.359375 -21 C 15.066406 -21.382812 14.675781 -21.769531 14.1875 -22.15625 C 13.695312 -22.550781 13.085938 -22.878906 12.359375 -23.140625 C 11.628906 -23.410156 10.765625 -23.546875 9.765625 -23.546875 C 8.316406 -23.546875 7.085938 -23.285156 6.078125 -22.765625 C 5.078125 -22.253906 4.316406 -21.601562 3.796875 -20.8125 C 3.285156 -20.019531 3.03125 -19.1875 3.03125 -18.3125 C 3.03125 -17.519531 3.238281 -16.84375 3.65625 -16.28125 C 4.070312 -15.71875 4.632812 -15.234375 5.34375 -14.828125 C 6.050781 -14.421875 6.835938 -14.0625 7.703125 -13.75 C 8.578125 -13.445312 9.476562 -13.140625 10.40625 -12.828125 C 11.34375 -12.515625 12.25 -12.175781 13.125 -11.8125 C 14 -11.445312 14.789062 -11.003906 15.5 -10.484375 C 16.207031 -9.972656 16.765625 -9.351562 17.171875 -8.625 C 17.585938 -7.90625 17.796875 -7.03125 17.796875 -6 C 17.796875 -5.1875 17.59375 -4.394531 17.1875 -3.625 C 16.78125 -2.851562 16.195312 -2.160156 15.4375 -1.546875 C 14.675781 -0.929688 13.757812 -0.441406 12.6875 -0.078125 C 11.613281 0.285156 10.398438 0.46875 9.046875 0.46875 C 8.015625 0.46875 7.03125 0.316406 6.09375 0.015625 C 5.15625 -0.273438 4.296875 -0.640625 3.515625 -1.078125 C 2.742188 -1.523438 2.070312 -1.957031 1.5 -2.375 L 1.5 -5.515625 L 1.734375 -5.515625 C 1.734375 -5.515625 1.851562 -5.328125 2.09375 -4.953125 C 2.332031 -4.578125 2.6875 -4.113281 3.15625 -3.5625 C 3.632812 -3.007812 4.21875 -2.457031 4.90625 -1.90625 C 5.601562 -1.351562 6.40625 -0.890625 7.3125 -0.515625 C 8.226562 -0.140625 9.238281 0.046875 10.34375 0.046875 C 11.207031 0.046875 12.007812 -0.09375 12.75 -0.375 C 13.488281 -0.65625 14.132812 -1.035156 14.6875 -1.515625 C 15.238281 -2.003906 15.664062 -2.550781 15.96875 -3.15625 C 16.28125 -3.757812 16.4375 -4.390625 16.4375 -5.046875 C 16.4375 -5.921875 16.226562 -6.671875 15.8125 -7.296875 C 15.394531 -7.929688 14.828125 -8.472656 14.109375 -8.921875 C 13.390625 -9.367188 12.582031 -9.769531 11.6875 -10.125 C 10.789062 -10.488281 9.867188 -10.832031 8.921875 -11.15625 C 7.972656 -11.488281 7.050781 -11.84375 6.15625 -12.21875 C 5.257812 -12.59375 4.453125 -13.023438 3.734375 -13.515625 C 3.015625 -14.003906 2.445312 -14.59375 2.03125 -15.28125 C 1.613281 -15.976562 1.40625 -16.800781 1.40625 -17.75 Z M 1.40625 -17.75 "/></g><g transform="translate(259.255104, 55.448853)"><path style="stroke:none" d="M 0.703125 -23.125 L 0.703125 -23.359375 L 7 -23.359375 L 7 -23.125 C 6.332031 -23.125 5.847656 -22.921875 5.546875 -22.515625 C 5.242188 -22.109375 5.050781 -21.445312 4.96875 -20.53125 C 4.894531 -19.625 4.859375 -18.398438 4.859375 -16.859375 L 4.859375 -6.5 C 4.859375 -4.96875 4.894531 -3.742188 4.96875 -2.828125 C 5.050781 -1.910156 5.242188 -1.25 5.546875 -0.84375 C 5.847656 -0.4375 6.332031 -0.234375 7 -0.234375 L 7 0 L 0.703125 0 L 0.703125 -0.234375 C 1.367188 -0.234375 1.851562 -0.4375 2.15625 -0.84375 C 2.457031 -1.25 2.644531 -1.910156 2.71875 -2.828125 C 2.800781 -3.742188 2.84375 -4.96875 2.84375 -6.5 L 2.84375 -16.859375 C 2.84375 -18.398438 2.800781 -19.625 2.71875 -20.53125 C 2.644531 -21.445312 2.457031 -22.109375 2.15625 -22.515625 C 1.851562 -22.921875 1.367188 -23.125 0.703125 -23.125 Z M 2.796875 -26.234375 C 2.796875 -26.515625 2.894531 -26.753906 3.09375 -26.953125 C 3.289062 -27.160156 3.53125 -27.265625 3.8125 -27.265625 C 4.09375 -27.265625 4.328125 -27.160156 4.515625 -26.953125 C 4.710938 -26.753906 4.8125 -26.515625 4.8125 -26.234375 C 4.8125 -25.953125 4.710938 -25.710938 4.515625 -25.515625 C 4.328125 -25.328125 4.09375 -25.234375 3.8125 -25.234375 C 3.53125 -25.234375 3.289062 -25.328125 3.09375 -25.515625 C 2.894531 -25.710938 2.796875 -25.953125 2.796875 -26.234375 Z M 2.796875 -26.234375 "/></g><g transform="translate(266.965898, 55.448853)"><path style="stroke:none" d="M 0 -23.125 L 0 -23.359375 L 6.5 -23.359375 L 6.5 -23.125 L 5.984375 -23.125 C 5.648438 -23.125 5.351562 -23.035156 5.09375 -22.859375 C 4.84375 -22.679688 4.71875 -22.359375 4.71875 -21.890625 C 4.71875 -21.617188 4.820312 -21.210938 5.03125 -20.671875 C 5.238281 -20.140625 5.519531 -19.523438 5.875 -18.828125 C 6.238281 -18.128906 6.632812 -17.382812 7.0625 -16.59375 C 7.488281 -15.8125 7.914062 -15.035156 8.34375 -14.265625 C 8.78125 -13.492188 9.1875 -12.769531 9.5625 -12.09375 C 9.945312 -11.414062 10.253906 -10.84375 10.484375 -10.375 C 10.816406 -10.976562 11.210938 -11.71875 11.671875 -12.59375 C 12.140625 -13.46875 12.625 -14.382812 13.125 -15.34375 C 13.625 -16.3125 14.09375 -17.242188 14.53125 -18.140625 C 14.976562 -19.046875 15.335938 -19.84375 15.609375 -20.53125 C 15.890625 -21.226562 16.03125 -21.734375 16.03125 -22.046875 C 16.03125 -22.472656 15.890625 -22.757812 15.609375 -22.90625 C 15.335938 -23.050781 15.039062 -23.125 14.71875 -23.125 L 14.109375 -23.125 L 14.109375 -23.359375 L 19.109375 -23.359375 L 19.109375 -23.125 C 18.515625 -23.125 18.019531 -22.921875 17.625 -22.515625 C 17.226562 -22.109375 16.8125 -21.476562 16.375 -20.625 C 15.9375 -19.769531 15.359375 -18.664062 14.640625 -17.3125 C 14.160156 -16.40625 13.65625 -15.476562 13.125 -14.53125 C 12.59375 -13.582031 12.097656 -12.695312 11.640625 -11.875 C 11.179688 -11.0625 10.820312 -10.394531 10.5625 -9.875 L 10.5625 -6.5 C 10.5625 -4.96875 10.597656 -3.742188 10.671875 -2.828125 C 10.753906 -1.910156 10.945312 -1.25 11.25 -0.84375 C 11.550781 -0.4375 12.035156 -0.234375 12.703125 -0.234375 L 12.703125 0 L 6.40625 0 L 6.40625 -0.234375 C 7.070312 -0.234375 7.554688 -0.4375 7.859375 -0.84375 C 8.160156 -1.25 8.347656 -1.910156 8.421875 -2.828125 C 8.503906 -3.742188 8.546875 -4.96875 8.546875 -6.5 L 8.546875 -9.875 C 8.285156 -10.394531 7.925781 -11.0625 7.46875 -11.875 C 7.007812 -12.695312 6.515625 -13.582031 5.984375 -14.53125 C 5.453125 -15.476562 4.945312 -16.40625 4.46875 -17.3125 C 3.757812 -18.664062 3.179688 -19.769531 2.734375 -20.625 C 2.296875 -21.476562 1.878906 -22.109375 1.484375 -22.515625 C 1.085938 -22.921875 0.59375 -23.125 0 -23.125 Z M 0 -23.125 "/></g><g transform="translate(286.07932, 55.448853)"><path style="stroke:none" d="M 11.796875 0.46875 C 10.347656 0.46875 8.992188 0.171875 7.734375 -0.421875 C 6.472656 -1.023438 5.363281 -1.875 4.40625 -2.96875 C 3.457031 -4.070312 2.71875 -5.363281 2.1875 -6.84375 C 1.664062 -8.320312 1.40625 -9.929688 1.40625 -11.671875 C 1.40625 -13.429688 1.664062 -15.046875 2.1875 -16.515625 C 2.71875 -17.992188 3.457031 -19.28125 4.40625 -20.375 C 5.363281 -21.476562 6.472656 -22.328125 7.734375 -22.921875 C 8.992188 -23.523438 10.347656 -23.828125 11.796875 -23.828125 C 13.242188 -23.828125 14.597656 -23.523438 15.859375 -22.921875 C 17.117188 -22.328125 18.222656 -21.476562 19.171875 -20.375 C 20.128906 -19.28125 20.867188 -17.992188 21.390625 -16.515625 C 21.921875 -15.046875 22.1875 -13.429688 22.1875 -11.671875 C 22.1875 -9.929688 21.921875 -8.320312 21.390625 -6.84375 C 20.867188 -5.363281 20.128906 -4.070312 19.171875 -2.96875 C 18.222656 -1.875 17.117188 -1.023438 15.859375 -0.421875 C 14.597656 0.171875 13.242188 0.46875 11.796875 0.46875 Z M 11.796875 -23.546875 C 10.578125 -23.546875 9.460938 -23.25 8.453125 -22.65625 C 7.441406 -22.0625 6.566406 -21.234375 5.828125 -20.171875 C 5.085938 -19.109375 4.515625 -17.851562 4.109375 -16.40625 C 3.703125 -14.96875 3.5 -13.390625 3.5 -11.671875 C 3.5 -9.984375 3.71875 -8.410156 4.15625 -6.953125 C 4.59375 -5.503906 5.191406 -4.25 5.953125 -3.1875 C 6.710938 -2.125 7.59375 -1.296875 8.59375 -0.703125 C 9.601562 -0.109375 10.671875 0.1875 11.796875 0.1875 C 12.921875 0.1875 13.984375 -0.109375 14.984375 -0.703125 C 15.984375 -1.296875 16.863281 -2.125 17.625 -3.1875 C 18.394531 -4.25 19 -5.503906 19.4375 -6.953125 C 19.875 -8.410156 20.09375 -9.984375 20.09375 -11.671875 C 20.09375 -13.390625 19.890625 -14.96875 19.484375 -16.40625 C 19.078125 -17.851562 18.503906 -19.109375 17.765625 -20.171875 C 17.023438 -21.234375 16.148438 -22.0625 15.140625 -22.65625 C 14.128906 -23.25 13.015625 -23.546875 11.796875 -23.546875 Z M 11.796875 -23.546875 "/></g><g transform="translate(309.679023, 55.448853)"><path style="stroke:none" d="M 0.703125 -23.359375 L 4.78125 -23.359375 L 17.875 -3.40625 L 17.875 -13.59375 C 17.875 -15.863281 17.6875 -17.695312 17.3125 -19.09375 C 16.9375 -20.488281 16.445312 -21.507812 15.84375 -22.15625 C 15.25 -22.800781 14.617188 -23.125 13.953125 -23.125 L 13.953125 -23.359375 L 20.25 -23.359375 L 20.25 -23.125 C 19.582031 -23.125 19.097656 -22.921875 18.796875 -22.515625 C 18.492188 -22.109375 18.300781 -21.445312 18.21875 -20.53125 C 18.144531 -19.625 18.109375 -18.398438 18.109375 -16.859375 L 18.109375 0.46875 L 17.875 0.46875 L 3.078125 -22.046875 L 3.078125 -9.765625 C 3.078125 -7.503906 3.265625 -5.671875 3.640625 -4.265625 C 4.015625 -2.867188 4.5 -1.847656 5.09375 -1.203125 C 5.695312 -0.554688 6.332031 -0.234375 7 -0.234375 L 7 0 L 0.703125 0 L 0.703125 -0.234375 C 1.367188 -0.234375 1.851562 -0.4375 2.15625 -0.84375 C 2.457031 -1.25 2.644531 -1.910156 2.71875 -2.828125 C 2.800781 -3.742188 2.84375 -4.96875 2.84375 -6.5 L 2.84375 -16.859375 C 2.84375 -18.398438 2.800781 -19.625 2.71875 -20.53125 C 2.644531 -21.445312 2.457031 -22.109375 2.15625 -22.515625 C 1.851562 -22.921875 1.367188 -23.125 0.703125 -23.125 Z M 0.703125 -23.359375 "/></g></g></g></svg>