<svg xmlns="http://www.w3.org/2000/svg" xmlns:xlink="http://www.w3.org/1999/xlink" width="500" zoomAndPan="magnify" viewBox="0 0 375 374.999991" height="500" preserveAspectRatio="xMidYMid meet" version="1.2"><defs><clipPath id="08147fcba3"><path d="M 100.882812 0 L 274.117188 0 C 275.765625 0 277.417969 0.0390625 279.066406 0.121094 C 280.714844 0.203125 282.359375 0.324219 284.003906 0.484375 C 285.648438 0.648438 287.285156 0.851562 288.917969 1.09375 C 290.550781 1.335938 292.175781 1.617188 293.796875 1.9375 C 295.417969 2.261719 297.027344 2.621094 298.628906 3.023438 C 300.230469 3.425781 301.820312 3.863281 303.402344 4.34375 C 304.980469 4.824219 306.546875 5.339844 308.101562 5.898438 C 309.65625 6.453125 311.195312 7.046875 312.722656 7.679688 C 314.246094 8.3125 315.757812 8.980469 317.25 9.6875 C 318.742188 10.390625 320.214844 11.132812 321.671875 11.914062 C 323.128906 12.691406 324.5625 13.503906 325.980469 14.351562 C 327.398438 15.203125 328.792969 16.085938 330.164062 17.003906 C 331.535156 17.917969 332.886719 18.871094 334.210938 19.851562 C 335.539062 20.835938 336.839844 21.851562 338.117188 22.898438 C 339.390625 23.945312 340.640625 25.023438 341.867188 26.132812 C 343.089844 27.242188 344.285156 28.382812 345.453125 29.546875 C 346.617188 30.714844 347.757812 31.910156 348.867188 33.132812 C 349.976562 34.359375 351.054688 35.609375 352.101562 36.882812 C 353.148438 38.160156 354.164062 39.460938 355.148438 40.789062 C 356.128906 42.113281 357.082031 43.464844 357.996094 44.835938 C 358.914062 46.207031 359.796875 47.601562 360.648438 49.019531 C 361.496094 50.4375 362.308594 51.871094 363.085938 53.328125 C 363.867188 54.785156 364.609375 56.257812 365.3125 57.75 C 366.019531 59.242188 366.6875 60.753906 367.320312 62.277344 C 367.953125 63.804688 368.546875 65.34375 369.101562 66.898438 C 369.660156 68.453125 370.175781 70.019531 370.65625 71.597656 C 371.136719 73.179688 371.574219 74.769531 371.976562 76.371094 C 372.378906 77.972656 372.738281 79.582031 373.0625 81.203125 C 373.382812 82.820312 373.664062 84.449219 373.90625 86.082031 C 374.148438 87.714844 374.351562 89.351562 374.515625 90.996094 C 374.675781 92.640625 374.796875 94.285156 374.878906 95.933594 C 374.960938 97.582031 375 99.234375 375 100.882812 L 375 274.117188 C 375 275.765625 374.960938 277.417969 374.878906 279.066406 C 374.796875 280.714844 374.675781 282.359375 374.515625 284.003906 C 374.351562 285.648438 374.148438 287.285156 373.90625 288.917969 C 373.664062 290.550781 373.382812 292.175781 373.0625 293.796875 C 372.738281 295.417969 372.378906 297.027344 371.976562 298.628906 C 371.574219 300.230469 371.136719 301.820312 370.65625 303.402344 C 370.175781 304.980469 369.660156 306.546875 369.101562 308.101562 C 368.546875 309.65625 367.953125 311.195312 367.320312 312.722656 C 366.6875 314.246094 366.019531 315.757812 365.3125 317.25 C 364.609375 318.742188 363.867188 320.214844 363.085938 321.671875 C 362.308594 323.128906 361.496094 324.5625 360.648438 325.980469 C 359.796875 327.398438 358.914062 328.792969 357.996094 330.164062 C 357.082031 331.535156 356.128906 332.886719 355.148438 334.210938 C 354.164062 335.539062 353.148438 336.839844 352.101562 338.117188 C 351.054688 339.390625 349.976562 340.640625 348.867188 341.867188 C 347.757812 343.089844 346.617188 344.285156 345.453125 345.453125 C 344.285156 346.617188 343.089844 347.757812 341.867188 348.867188 C 340.640625 349.976562 339.390625 351.054688 338.117188 352.101562 C 336.839844 353.148438 335.539062 354.164062 334.210938 355.148438 C 332.886719 356.128906 331.535156 357.082031 330.164062 357.996094 C 328.792969 358.914062 327.398438 359.796875 325.980469 360.648438 C 324.5625 361.496094 323.128906 362.308594 321.671875 363.085938 C 320.214844 363.867188 318.742188 364.609375 317.25 365.3125 C 315.757812 366.019531 314.246094 366.6875 312.722656 367.320312 C 311.195312 367.953125 309.65625 368.546875 308.101562 369.101562 C 306.546875 369.660156 304.980469 370.175781 303.402344 370.65625 C 301.820312 371.136719 300.230469 371.574219 298.628906 371.976562 C 297.027344 372.378906 295.417969 372.738281 293.796875 373.0625 C 292.175781 373.382812 290.550781 373.664062 288.917969 373.90625 C 287.285156 374.148438 285.648438 374.351562 284.003906 374.515625 C 282.359375 374.675781 280.714844 374.796875 279.066406 374.878906 C 277.417969 374.960938 275.765625 375 274.117188 375 L 100.882812 375 C 99.234375 375 97.582031 374.960938 95.933594 374.878906 C 94.285156 374.796875 92.640625 374.675781 90.996094 374.515625 C 89.351562 374.351562 87.714844 374.148438 86.082031 373.90625 C 84.449219 373.664062 82.820312 373.382812 81.203125 373.0625 C 79.582031 372.738281 77.972656 372.378906 76.371094 371.976562 C 74.769531 371.574219 73.179688 371.136719 71.597656 370.65625 C 70.019531 370.175781 68.453125 369.660156 66.898438 369.101562 C 65.34375 368.546875 63.804688 367.953125 62.277344 367.320312 C 60.753906 366.6875 59.242188 366.019531 57.75 365.3125 C 56.257812 364.609375 54.785156 363.867188 53.328125 363.085938 C 51.871094 362.308594 50.4375 361.496094 49.019531 360.648438 C 47.601562 359.796875 46.207031 358.914062 44.835938 357.996094 C 43.464844 357.082031 42.113281 356.128906 40.789062 355.148438 C 39.460938 354.164062 38.160156 353.148438 36.882812 352.101562 C 35.609375 351.054688 34.359375 349.976562 33.132812 348.867188 C 31.910156 347.757812 30.714844 346.617188 29.546875 345.453125 C 28.382812 344.285156 27.242188 343.089844 26.132812 341.867188 C 25.023438 340.640625 23.945312 339.390625 22.898438 338.117188 C 21.851562 336.839844 20.835938 335.539062 19.851562 334.210938 C 18.871094 332.886719 17.917969 331.535156 17.003906 330.164062 C 16.085938 328.792969 15.203125 327.398438 14.351562 325.980469 C 13.503906 324.5625 12.691406 323.128906 11.914062 321.671875 C 11.132812 320.214844 10.390625 318.742188 9.6875 317.25 C 8.980469 315.757812 8.3125 314.246094 7.679688 312.722656 C 7.046875 311.195312 6.453125 309.65625 5.898438 308.101562 C 5.339844 306.546875 4.824219 304.980469 4.34375 303.402344 C 3.863281 301.820312 3.425781 300.230469 3.023438 298.628906 C 2.621094 297.027344 2.261719 295.417969 1.9375 293.796875 C 1.617188 292.175781 1.335938 290.550781 1.09375 288.917969 C 0.851562 287.285156 0.648438 285.648438 0.484375 284.003906 C 0.324219 282.359375 0.203125 280.714844 0.121094 279.066406 C 0.0390625 277.417969 0 275.765625 0 274.117188 L 0 100.882812 C 0 99.234375 0.0390625 97.582031 0.121094 95.933594 C 0.203125 94.285156 0.324219 92.640625 0.484375 90.996094 C 0.648438 89.351562 0.851562 87.714844 1.09375 86.082031 C 1.335938 84.449219 1.617188 82.820312 1.9375 81.203125 C 2.261719 79.582031 2.621094 77.972656 3.023438 76.371094 C 3.425781 74.769531 3.863281 73.179688 4.34375 71.597656 C 4.824219 70.019531 5.339844 68.453125 5.898438 66.898438 C 6.453125 65.34375 7.046875 63.804688 7.679688 62.277344 C 8.3125 60.753906 8.980469 59.242188 9.6875 57.75 C 10.390625 56.257812 11.132812 54.785156 11.914062 53.328125 C 12.691406 51.871094 13.503906 50.4375 14.351562 49.019531 C 15.203125 47.601562 16.085938 46.207031 17.003906 44.835938 C 17.917969 43.464844 18.871094 42.113281 19.851562 40.789062 C 20.835938 39.460938 21.851562 38.160156 22.898438 36.882812 C 23.945312 35.609375 25.023438 34.359375 26.132812 33.132812 C 27.242188 31.910156 28.382812 30.714844 29.546875 29.546875 C 30.714844 28.382812 31.910156 27.242188 33.132812 26.132812 C 34.359375 25.023438 35.609375 23.945312 36.882812 22.898438 C 38.160156 21.851562 39.460938 20.835938 40.789062 19.851562 C 42.113281 18.871094 43.464844 17.917969 44.835938 17.003906 C 46.207031 16.085938 47.601562 15.203125 49.019531 14.351562 C 50.4375 13.503906 51.871094 12.691406 53.328125 11.914062 C 54.785156 11.132812 56.257812 10.390625 57.75 9.6875 C 59.242188 8.980469 60.753906 8.3125 62.277344 7.679688 C 63.804688 7.046875 65.34375 6.453125 66.898438 5.898438 C 68.453125 5.339844 70.019531 4.824219 71.597656 4.34375 C 73.179688 3.863281 74.769531 3.425781 76.371094 3.023438 C 77.972656 2.621094 79.582031 2.261719 81.203125 1.9375 C 82.820312 1.617188 84.449219 1.335938 86.082031 1.09375 C 87.714844 0.851562 89.351562 0.648438 90.996094 0.484375 C 92.640625 0.324219 94.285156 0.203125 95.933594 0.121094 C 97.582031 0.0390625 99.234375 0 100.882812 0 Z M 100.882812 0 "/></clipPath></defs><g id="2756461d31"><g clip-rule="nonzero" clip-path="url(#08147fcba3)"><rect x="0" width="375" y="0" height="374.999991" style="fill:#d7af53;fill-opacity:1;stroke:none;"/></g><g style="fill:#333d35;fill-opacity:1;"><g transform="translate(49.363458, 334.95541)"><path style="stroke:none" d="M 9.40625 -54.84375 C 9.40625 -67.789062 12.429688 -79.4375 18.484375 -89.78125 C 24.546875 -100.125 32.328125 -109.523438 41.828125 -117.984375 C 51.335938 -126.441406 61.421875 -134.171875 72.078125 -141.171875 C 82.734375 -148.171875 92.8125 -154.644531 102.3125 -160.59375 C 111.820312 -166.550781 119.601562 -172.242188 125.65625 -177.671875 C 131.71875 -183.109375 134.75 -188.546875 134.75 -193.984375 C 134.75 -196.898438 134.015625 -199.035156 132.546875 -200.390625 C 131.085938 -201.753906 129.316406 -202.4375 127.234375 -202.4375 C 123.472656 -202.4375 119.972656 -200.765625 116.734375 -197.421875 C 113.492188 -194.078125 110.304688 -190.265625 107.171875 -185.984375 C 104.035156 -181.703125 100.640625 -177.890625 96.984375 -174.546875 C 93.328125 -171.203125 89.304688 -169.53125 84.921875 -169.53125 C 80.535156 -169.53125 77.867188 -171.304688 76.921875 -174.859375 C 75.984375 -178.410156 76.25 -182.171875 77.71875 -186.140625 C 82.519531 -198.679688 86.90625 -210.328125 90.875 -221.078125 C 94.84375 -231.835938 98.757812 -242.285156 102.625 -252.421875 C 106.488281 -262.554688 110.457031 -273.054688 114.53125 -283.921875 C 118.613281 -294.785156 123.160156 -306.691406 128.171875 -319.640625 L 131.296875 -319.640625 L 231.578125 -54.84375 C 238.472656 -37.707031 244.945312 -24.804688 251 -16.140625 C 257.0625 -7.472656 264.898438 -3.140625 274.515625 -3.140625 L 274.515625 0 L 171.734375 0 L 171.734375 -3.140625 C 182.804688 -3.140625 191.210938 -4.597656 196.953125 -7.515625 C 202.703125 -10.441406 206.410156 -14.515625 208.078125 -19.734375 C 209.753906 -24.960938 209.960938 -31.023438 208.703125 -37.921875 C 207.453125 -44.816406 205.363281 -52.234375 202.4375 -60.171875 L 163.578125 -162.640625 C 164.835938 -152.609375 165.46875 -140.070312 165.46875 -125.03125 C 165.46875 -99.757812 161.546875 -77.195312 153.703125 -57.34375 C 145.867188 -37.5 134.585938 -21.9375 119.859375 -10.65625 C 105.128906 0.625 87.320312 6.265625 66.4375 6.265625 C 54.320312 6.265625 44.03125 3.445312 35.5625 -2.1875 C 27.101562 -7.832031 20.628906 -15.300781 16.140625 -24.59375 C 11.648438 -33.894531 9.40625 -43.976562 9.40625 -54.84375 Z M 36.03125 -60.796875 C 36.03125 -46.171875 40.414062 -33.84375 49.1875 -23.8125 C 57.96875 -13.789062 69.984375 -8.78125 85.234375 -8.78125 C 98.398438 -8.78125 109.785156 -12.328125 119.390625 -19.421875 C 129.003906 -26.523438 136.992188 -35.820312 143.359375 -47.3125 C 149.734375 -58.8125 154.488281 -71.347656 157.625 -84.921875 C 160.757812 -98.503906 162.328125 -111.664062 162.328125 -124.40625 C 162.328125 -136.101562 161.960938 -146.546875 161.234375 -155.734375 C 160.503906 -164.929688 158.675781 -174.128906 155.75 -183.328125 L 117.828125 -283.296875 L 81.796875 -187.390625 C 79.703125 -181.960938 79.125 -178.148438 80.0625 -175.953125 C 81.007812 -173.765625 82.734375 -172.671875 85.234375 -172.671875 C 88.785156 -172.671875 92.234375 -174.34375 95.578125 -177.6875 C 98.921875 -181.03125 102.265625 -184.84375 105.609375 -189.125 C 108.953125 -193.40625 112.453125 -197.21875 116.109375 -200.5625 C 119.765625 -203.90625 123.679688 -205.578125 127.859375 -205.578125 C 130.785156 -205.578125 133.238281 -204.582031 135.21875 -202.59375 C 137.207031 -200.613281 138.203125 -197.535156 138.203125 -193.359375 C 138.203125 -186.460938 135.742188 -180.140625 130.828125 -174.390625 C 125.921875 -168.648438 119.601562 -163.0625 111.875 -157.625 C 104.144531 -152.195312 95.890625 -146.453125 87.109375 -140.390625 C 78.335938 -134.328125 70.085938 -127.585938 62.359375 -120.171875 C 54.628906 -112.753906 48.304688 -104.238281 43.390625 -94.625 C 38.484375 -85.019531 36.03125 -73.742188 36.03125 -60.796875 Z M 36.03125 -60.796875 "/></g></g></g></svg>